<svg viewBox="0 0 512 512" xmlns="http://www.w3.org/2000/svg" fill-rule="evenodd" clip-rule="evenodd" stroke-linejoin="round" stroke-miterlimit="2"><g transform="translate(6 6) scale(5.85938)"><clipPath id="prefix__a"><path d="M0 0h85.333v85.333H0z"/></clipPath><g clip-path="url(#prefix__a)"><path d="M1.306 51.245a.251.251 0 01-.076-.31l7.636-15.726L.058 24.691a.251.251 0 01.032-.352L25.78 2.932c4.559-3.796 11.203-3.904 15.884-.26 4.676 3.637 6.183 10.106 3.597 15.436l-2.8 5.767c1.092-.367 2.173-.7 3.241-1l12.674-3.64a.25.25 0 01.313.186l5.306 23.585a.253.253 0 01-.215.307c-1.682.212-10.858 1.53-22.281 6.33-12.944 5.435-21.485 13.162-22.695 14.292a.247.247 0 01-.319.014L1.306 51.245z" fill="url(#prefix___Linear2)" fill-rule="nonzero" transform="scale(1.33333)"/><path fill-rule="nonzero" d="M16 16h53.333v53.333H16z"/><path d="M44 58.667H22.667v4H44v-4zM28.623 35.16l-7.318-12.504h4.2l4.532 7.99.53 1.143.529-1.158 4.415-7.974h4.13l-7.204 12.476v7.53h-3.814V35.16zm11.76-12.504h16.05v3.516h-6.06v16.495h-3.902V26.173h-6.088v-3.517z" fill="#fff" fill-rule="nonzero"/></g></g><defs><linearGradient id="prefix___Linear2" x1="0" y1="0" x2="1" y2="0" gradientUnits="userSpaceOnUse" gradientTransform="translate(-.102 32) scale(64.155)"><stop offset="0" stop-color="#fb43ff"/><stop offset=".97" stop-color="#fb406d"/><stop offset="1" stop-color="#fb406d"/></linearGradient></defs></svg>